<svg xmlns="http://www.w3.org/2000/svg" width="1600" height="500" viewBox="0 0 1600 500">
<defs>
  <marker id="arrow" markerWidth="10" markerHeight="10" refX="8" refY="3" orient="auto" markerUnits="strokeWidth">
    <path d="M0,0 L0,6 L9,3 z" fill="#64748b" />
  </marker>
  <filter id="shadow" x="-20%" y="-20%" width="140%" height="140%">
    <feDropShadow dx="0" dy="4" stdDeviation="6" flood-color="#000000" flood-opacity="0.12" />
  </filter>
</defs>
<rect width="100%" height="100%" fill="#f8fafc" />
<text x="800" y="50" font-size="34" font-weight="700" fill="#1f2937" text-anchor="middle" font-family="Noto Sans CJK KR, NanumGothic, sans-serif">생성 플로우 상태 머신</text><rect x="85" y="150" width="160" height="70" rx="14" fill="#ffffff" stroke="#cbd5e1" stroke-width="2" /><text x="165.0" y="193" font-size="17" font-weight="700" fill="#0f172a" text-anchor="middle" font-family="Noto Sans CJK KR, NanumGothic, sans-serif">idle</text><line x1="249" y1="185" x2="268" y2="185" stroke="#64748b" stroke-width="3" marker-end="url(#arrow)" /><rect x="275" y="150" width="160" height="70" rx="14" fill="#ffffff" stroke="#cbd5e1" stroke-width="2" /><text x="355.0" y="193" font-size="17" font-weight="700" fill="#0f172a" text-anchor="middle" font-family="Noto Sans CJK KR, NanumGothic, sans-serif">uploading</text><line x1="439" y1="185" x2="458" y2="185" stroke="#64748b" stroke-width="3" marker-end="url(#arrow)" /><rect x="465" y="150" width="160" height="70" rx="14" fill="#ffffff" stroke="#cbd5e1" stroke-width="2" /><text x="545.0" y="193" font-size="17" font-weight="700" fill="#0f172a" text-anchor="middle" font-family="Noto Sans CJK KR, NanumGothic, sans-serif">ocr_processing</text><line x1="629" y1="185" x2="648" y2="185" stroke="#64748b" stroke-width="3" marker-end="url(#arrow)" /><rect x="655" y="150" width="160" height="70" rx="14" fill="#ffffff" stroke="#cbd5e1" stroke-width="2" /><text x="735.0" y="193" font-size="17" font-weight="700" fill="#0f172a" text-anchor="middle" font-family="Noto Sans CJK KR, NanumGothic, sans-serif">quote_selecting</text><line x1="819" y1="185" x2="838" y2="185" stroke="#64748b" stroke-width="3" marker-end="url(#arrow)" /><rect x="845" y="150" width="160" height="70" rx="14" fill="#ffffff" stroke="#cbd5e1" stroke-width="2" /><text x="925.0" y="193" font-size="17" font-weight="700" fill="#0f172a" text-anchor="middle" font-family="Noto Sans CJK KR, NanumGothic, sans-serif">details_editing</text><line x1="1009" y1="185" x2="1028" y2="185" stroke="#64748b" stroke-width="3" marker-end="url(#arrow)" /><rect x="1035" y="150" width="160" height="70" rx="14" fill="#ffffff" stroke="#cbd5e1" stroke-width="2" /><text x="1115.0" y="193" font-size="17" font-weight="700" fill="#0f172a" text-anchor="middle" font-family="Noto Sans CJK KR, NanumGothic, sans-serif">template_selecting</text><line x1="1199" y1="185" x2="1218" y2="185" stroke="#64748b" stroke-width="3" marker-end="url(#arrow)" /><rect x="1225" y="150" width="160" height="70" rx="14" fill="#ffffff" stroke="#cbd5e1" stroke-width="2" /><text x="1305.0" y="193" font-size="17" font-weight="700" fill="#0f172a" text-anchor="middle" font-family="Noto Sans CJK KR, NanumGothic, sans-serif">preview_ready</text><line x1="1389" y1="185" x2="1408" y2="185" stroke="#64748b" stroke-width="3" marker-end="url(#arrow)" /><rect x="1415" y="150" width="160" height="70" rx="14" fill="#ffffff" stroke="#cbd5e1" stroke-width="2" /><text x="1495.0" y="193" font-size="17" font-weight="700" fill="#0f172a" text-anchor="middle" font-family="Noto Sans CJK KR, NanumGothic, sans-serif">complete</text><text x="800" y="300" font-size="25" font-weight="700" fill="#334155" text-anchor="middle" font-family="Noto Sans CJK KR, NanumGothic, sans-serif">예외 상태</text><rect x="230" y="350" width="220" height="80" rx="14" fill="#fef2f2" stroke="#fecaca" stroke-width="2" /><text x="340" y="385" font-size="19" font-weight="700" fill="#991b1b" text-anchor="middle" font-family="Noto Sans CJK KR, NanumGothic, sans-serif">ocr_failed</text><text x="340" y="410" font-size="15" font-weight="500" fill="#7f1d1d" text-anchor="middle" font-family="Noto Sans CJK KR, NanumGothic, sans-serif">재촬영/직접 입력</text><rect x="530" y="350" width="220" height="80" rx="14" fill="#fef2f2" stroke="#fecaca" stroke-width="2" /><text x="640" y="385" font-size="19" font-weight="700" fill="#991b1b" text-anchor="middle" font-family="Noto Sans CJK KR, NanumGothic, sans-serif">ai_failed</text><text x="640" y="410" font-size="15" font-weight="500" fill="#7f1d1d" text-anchor="middle" font-family="Noto Sans CJK KR, NanumGothic, sans-serif">fallback 추천</text><rect x="830" y="350" width="220" height="80" rx="14" fill="#fef2f2" stroke="#fecaca" stroke-width="2" /><text x="940" y="385" font-size="19" font-weight="700" fill="#991b1b" text-anchor="middle" font-family="Noto Sans CJK KR, NanumGothic, sans-serif">render_failed</text><text x="940" y="410" font-size="15" font-weight="500" fill="#7f1d1d" text-anchor="middle" font-family="Noto Sans CJK KR, NanumGothic, sans-serif">재시도</text><rect x="1130" y="350" width="220" height="80" rx="14" fill="#fef2f2" stroke="#fecaca" stroke-width="2" /><text x="1240" y="385" font-size="19" font-weight="700" fill="#991b1b" text-anchor="middle" font-family="Noto Sans CJK KR, NanumGothic, sans-serif">expired</text><text x="1240" y="410" font-size="15" font-weight="500" fill="#7f1d1d" text-anchor="middle" font-family="Noto Sans CJK KR, NanumGothic, sans-serif">세션 재시작</text>
</svg>