<svg xmlns="http://www.w3.org/2000/svg" width="1600" height="650" viewBox="0 0 1600 650">
<defs>
  <marker id="arrow" markerWidth="10" markerHeight="10" refX="8" refY="3" orient="auto" markerUnits="strokeWidth">
    <path d="M0,0 L0,6 L9,3 z" fill="#64748b" />
  </marker>
  <filter id="shadow" x="-20%" y="-20%" width="140%" height="140%">
    <feDropShadow dx="0" dy="4" stdDeviation="6" flood-color="#000000" flood-opacity="0.12" />
  </filter>
</defs>
<rect width="100%" height="100%" fill="#f8fafc" />
<text x="800" y="50" font-size="34" font-weight="700" fill="#1f2937" text-anchor="middle" font-family="Noto Sans CJK KR, NanumGothic, sans-serif">시스템 아키텍처</text><rect x="80" y="110" width="1440" height="100" rx="18" fill="#ffffff" stroke="#cbd5e1" stroke-width="2" /><text x="180" y="168" font-size="22" font-weight="700" fill="#0f172a" text-anchor="start" font-family="Noto Sans CJK KR, NanumGothic, sans-serif">Client / PWA</text><rect x="440" y="134" width="200" height="52" rx="12" fill="#eef2ff" stroke="#c7d2fe" stroke-width="1.5" /><text x="540" y="168" font-size="18" font-weight="600" fill="#3730a3" text-anchor="middle" font-family="Noto Sans CJK KR, NanumGothic, sans-serif">카메라/업로드</text><rect x="690" y="134" width="200" height="52" rx="12" fill="#eef2ff" stroke="#c7d2fe" stroke-width="1.5" /><text x="790" y="168" font-size="18" font-weight="600" fill="#3730a3" text-anchor="middle" font-family="Noto Sans CJK KR, NanumGothic, sans-serif">문장 선택</text><rect x="940" y="134" width="200" height="52" rx="12" fill="#eef2ff" stroke="#c7d2fe" stroke-width="1.5" /><text x="1040" y="168" font-size="18" font-weight="600" fill="#3730a3" text-anchor="middle" font-family="Noto Sans CJK KR, NanumGothic, sans-serif">카드 미리보기</text><rect x="1190" y="134" width="200" height="52" rx="12" fill="#eef2ff" stroke="#c7d2fe" stroke-width="1.5" /><text x="1290" y="168" font-size="18" font-weight="600" fill="#3730a3" text-anchor="middle" font-family="Noto Sans CJK KR, NanumGothic, sans-serif">다운로드</text><line x1="800" y1="210" x2="800" y2="240" stroke="#64748b" stroke-width="3" marker-end="url(#arrow)" /><rect x="80" y="240" width="1440" height="100" rx="18" fill="#ffffff" stroke="#cbd5e1" stroke-width="2" /><text x="180" y="298" font-size="22" font-weight="700" fill="#0f172a" text-anchor="start" font-family="Noto Sans CJK KR, NanumGothic, sans-serif">API Server</text><rect x="440" y="264" width="200" height="52" rx="12" fill="#eef2ff" stroke="#c7d2fe" stroke-width="1.5" /><text x="540" y="298" font-size="18" font-weight="600" fill="#3730a3" text-anchor="middle" font-family="Noto Sans CJK KR, NanumGothic, sans-serif">인증/세션</text><rect x="690" y="264" width="200" height="52" rx="12" fill="#eef2ff" stroke="#c7d2fe" stroke-width="1.5" /><text x="790" y="298" font-size="18" font-weight="600" fill="#3730a3" text-anchor="middle" font-family="Noto Sans CJK KR, NanumGothic, sans-serif">검증</text><rect x="940" y="264" width="200" height="52" rx="12" fill="#eef2ff" stroke="#c7d2fe" stroke-width="1.5" /><text x="1040" y="298" font-size="18" font-weight="600" fill="#3730a3" text-anchor="middle" font-family="Noto Sans CJK KR, NanumGothic, sans-serif">추천 API</text><rect x="1190" y="264" width="200" height="52" rx="12" fill="#eef2ff" stroke="#c7d2fe" stroke-width="1.5" /><text x="1290" y="298" font-size="18" font-weight="600" fill="#3730a3" text-anchor="middle" font-family="Noto Sans CJK KR, NanumGothic, sans-serif">저장 API</text><line x1="800" y1="340" x2="800" y2="370" stroke="#64748b" stroke-width="3" marker-end="url(#arrow)" /><rect x="80" y="370" width="1440" height="100" rx="18" fill="#ffffff" stroke="#cbd5e1" stroke-width="2" /><text x="180" y="428" font-size="22" font-weight="700" fill="#0f172a" text-anchor="start" font-family="Noto Sans CJK KR, NanumGothic, sans-serif">Workers</text><rect x="440" y="394" width="200" height="52" rx="12" fill="#eef2ff" stroke="#c7d2fe" stroke-width="1.5" /><text x="540" y="428" font-size="18" font-weight="600" fill="#3730a3" text-anchor="middle" font-family="Noto Sans CJK KR, NanumGothic, sans-serif">OCR Worker</text><rect x="690" y="394" width="200" height="52" rx="12" fill="#eef2ff" stroke="#c7d2fe" stroke-width="1.5" /><text x="790" y="428" font-size="18" font-weight="600" fill="#3730a3" text-anchor="middle" font-family="Noto Sans CJK KR, NanumGothic, sans-serif">AI Classifier</text><rect x="940" y="394" width="200" height="52" rx="12" fill="#eef2ff" stroke="#c7d2fe" stroke-width="1.5" /><text x="1040" y="428" font-size="18" font-weight="600" fill="#3730a3" text-anchor="middle" font-family="Noto Sans CJK KR, NanumGothic, sans-serif">Render Worker</text><rect x="1190" y="394" width="200" height="52" rx="12" fill="#eef2ff" stroke="#c7d2fe" stroke-width="1.5" /><text x="1290" y="428" font-size="18" font-weight="600" fill="#3730a3" text-anchor="middle" font-family="Noto Sans CJK KR, NanumGothic, sans-serif">Cleanup Job</text><line x1="800" y1="470" x2="800" y2="500" stroke="#64748b" stroke-width="3" marker-end="url(#arrow)" /><rect x="80" y="500" width="1440" height="100" rx="18" fill="#ffffff" stroke="#cbd5e1" stroke-width="2" /><text x="180" y="558" font-size="22" font-weight="700" fill="#0f172a" text-anchor="start" font-family="Noto Sans CJK KR, NanumGothic, sans-serif">Data / Storage</text><rect x="440" y="524" width="200" height="52" rx="12" fill="#eef2ff" stroke="#c7d2fe" stroke-width="1.5" /><text x="540" y="558" font-size="18" font-weight="600" fill="#3730a3" text-anchor="middle" font-family="Noto Sans CJK KR, NanumGothic, sans-serif">PostgreSQL</text><rect x="690" y="524" width="200" height="52" rx="12" fill="#eef2ff" stroke="#c7d2fe" stroke-width="1.5" /><text x="790" y="558" font-size="18" font-weight="600" fill="#3730a3" text-anchor="middle" font-family="Noto Sans CJK KR, NanumGothic, sans-serif">Object Storage</text><rect x="940" y="524" width="200" height="52" rx="12" fill="#eef2ff" stroke="#c7d2fe" stroke-width="1.5" /><text x="1040" y="558" font-size="18" font-weight="600" fill="#3730a3" text-anchor="middle" font-family="Noto Sans CJK KR, NanumGothic, sans-serif">Template Assets</text><rect x="1190" y="524" width="200" height="52" rx="12" fill="#eef2ff" stroke="#c7d2fe" stroke-width="1.5" /><text x="1290" y="558" font-size="18" font-weight="600" fill="#3730a3" text-anchor="middle" font-family="Noto Sans CJK KR, NanumGothic, sans-serif">TTL OCR Session</text>
</svg>