<svg xmlns="http://www.w3.org/2000/svg" width="980" height="1080" viewBox="0 0 980 1080">
<defs>
  <marker id="arrow" markerWidth="10" markerHeight="10" refX="8" refY="3" orient="auto" markerUnits="strokeWidth">
    <path d="M0,0 L0,6 L9,3 z" fill="#64748b" />
  </marker>
  <filter id="shadow" x="-20%" y="-20%" width="140%" height="140%">
    <feDropShadow dx="0" dy="4" stdDeviation="6" flood-color="#000000" flood-opacity="0.12" />
  </filter>
</defs>
<rect width="100%" height="100%" fill="#f8fafc" />
<text x="900" y="50" font-size="32" font-weight="700" fill="#1f2937" text-anchor="middle" font-family="Noto Sans CJK KR, NanumGothic, sans-serif">카드 생성 플로우 와이어프레임</text><g filter="url(#shadow)"><rect x="70" y="100" width="240" height="430" rx="28" fill="#ffffff" stroke="#cbd5e1" stroke-width="2" /></g><rect x="84" y="114" width="212" height="402" rx="20" fill="#f8fafc" stroke="#e2e8f0" stroke-width="1" /><text x="190" y="148" font-size="18" font-weight="700" fill="#0f172a" text-anchor="middle" font-family="Noto Sans CJK KR, NanumGothic, sans-serif">HOME</text><rect x="104" y="175" width="172" height="80" rx="14" fill="#ede9fe" stroke="#ddd6fe" stroke-width="1" /><text x="190" y="211" font-size="15" font-weight="700" fill="#5b21b6" text-anchor="middle" font-family="Noto Sans CJK KR, NanumGothic, sans-serif">서비스 가치</text><rect x="104" y="275" width="172" height="42" rx="12" fill="#1f2937" stroke="#1f2937" stroke-width="1" /><text x="190" y="302" font-size="13" font-weight="700" fill="#ffffff" text-anchor="middle" font-family="Noto Sans CJK KR, NanumGothic, sans-serif">책 페이지 찍기</text><rect x="104" y="329" width="172" height="42" rx="12" fill="#1f2937" stroke="#1f2937" stroke-width="1" /><text x="190" y="356" font-size="13" font-weight="700" fill="#ffffff" text-anchor="middle" font-family="Noto Sans CJK KR, NanumGothic, sans-serif">이미지 업로드</text><rect x="104" y="383" width="172" height="48" rx="10" fill="#ffffff" stroke="#cbd5e1" stroke-width="1" /><text x="190" y="413" font-size="13" font-weight="500" fill="#334155" text-anchor="middle" font-family="Noto Sans CJK KR, NanumGothic, sans-serif">원본 미저장 안내</text><line x1="315" y1="315" x2="345" y2="315" stroke="#64748b" stroke-width="3" marker-end="url(#arrow)" /><g filter="url(#shadow)"><rect x="350" y="100" width="240" height="430" rx="28" fill="#ffffff" stroke="#cbd5e1" stroke-width="2" /></g><rect x="364" y="114" width="212" height="402" rx="20" fill="#f8fafc" stroke="#e2e8f0" stroke-width="1" /><text x="470" y="148" font-size="18" font-weight="700" fill="#0f172a" text-anchor="middle" font-family="Noto Sans CJK KR, NanumGothic, sans-serif">UPLOAD</text><rect x="384" y="175" width="172" height="48" rx="10" fill="#ffffff" stroke="#cbd5e1" stroke-width="1" /><text x="470" y="205" font-size="13" font-weight="500" fill="#334155" text-anchor="middle" font-family="Noto Sans CJK KR, NanumGothic, sans-serif">촬영 가이드</text><rect x="384" y="237" width="172" height="42" rx="12" fill="#1f2937" stroke="#1f2937" stroke-width="1" /><text x="470" y="264" font-size="13" font-weight="700" fill="#ffffff" text-anchor="middle" font-family="Noto Sans CJK KR, NanumGothic, sans-serif">카메라</text><rect x="384" y="291" width="172" height="42" rx="12" fill="#1f2937" stroke="#1f2937" stroke-width="1" /><text x="470" y="318" font-size="13" font-weight="700" fill="#ffffff" text-anchor="middle" font-family="Noto Sans CJK KR, NanumGothic, sans-serif">앨범 선택</text><rect x="384" y="345" width="172" height="48" rx="10" fill="#ffffff" stroke="#cbd5e1" stroke-width="1" /><text x="470" y="375" font-size="13" font-weight="500" fill="#334155" text-anchor="middle" font-family="Noto Sans CJK KR, NanumGothic, sans-serif">직접 입력</text><line x1="595" y1="315" x2="625" y2="315" stroke="#64748b" stroke-width="3" marker-end="url(#arrow)" /><g filter="url(#shadow)"><rect x="630" y="100" width="240" height="430" rx="28" fill="#ffffff" stroke="#cbd5e1" stroke-width="2" /></g><rect x="644" y="114" width="212" height="402" rx="20" fill="#f8fafc" stroke="#e2e8f0" stroke-width="1" /><text x="750" y="148" font-size="18" font-weight="700" fill="#0f172a" text-anchor="middle" font-family="Noto Sans CJK KR, NanumGothic, sans-serif">SELECT</text><rect x="664" y="175" width="172" height="36" rx="8" fill="#ffffff" stroke="#cbd5e1" stroke-width="1" /><text x="750" y="198" font-size="12" font-weight="500" fill="#334155" text-anchor="middle" font-family="Noto Sans CJK KR, NanumGothic, sans-serif">OCR 문장 1</text><rect x="664" y="221" width="172" height="36" rx="8" fill="#ffffff" stroke="#cbd5e1" stroke-width="1" /><text x="750" y="244" font-size="12" font-weight="500" fill="#334155" text-anchor="middle" font-family="Noto Sans CJK KR, NanumGothic, sans-serif">OCR 문장 2</text><rect x="664" y="267" width="172" height="36" rx="8" fill="#ffffff" stroke="#cbd5e1" stroke-width="1" /><text x="750" y="290" font-size="12" font-weight="500" fill="#334155" text-anchor="middle" font-family="Noto Sans CJK KR, NanumGothic, sans-serif">OCR 문장 3</text><rect x="664" y="313" width="172" height="48" rx="10" fill="#ffffff" stroke="#cbd5e1" stroke-width="1" /><text x="750" y="343" font-size="13" font-weight="500" fill="#334155" text-anchor="middle" font-family="Noto Sans CJK KR, NanumGothic, sans-serif">선택 문구 수정</text><rect x="664" y="375" width="172" height="42" rx="12" fill="#1f2937" stroke="#1f2937" stroke-width="1" /><text x="750" y="402" font-size="13" font-weight="700" fill="#ffffff" text-anchor="middle" font-family="Noto Sans CJK KR, NanumGothic, sans-serif">다음</text><line x1="750" y1="535" x2="750" y2="600" stroke="#64748b" stroke-width="3" marker-end="url(#arrow)" /><g filter="url(#shadow)"><rect x="70" y="600" width="240" height="430" rx="28" fill="#ffffff" stroke="#cbd5e1" stroke-width="2" /></g><rect x="84" y="614" width="212" height="402" rx="20" fill="#f8fafc" stroke="#e2e8f0" stroke-width="1" /><text x="190" y="648" font-size="18" font-weight="700" fill="#0f172a" text-anchor="middle" font-family="Noto Sans CJK KR, NanumGothic, sans-serif">DETAILS</text><rect x="104" y="675" width="172" height="48" rx="10" fill="#ffffff" stroke="#cbd5e1" stroke-width="1" /><text x="190" y="705" font-size="13" font-weight="500" fill="#334155" text-anchor="middle" font-family="Noto Sans CJK KR, NanumGothic, sans-serif">책 제목</text><rect x="104" y="737" width="172" height="48" rx="10" fill="#ffffff" stroke="#cbd5e1" stroke-width="1" /><text x="190" y="767" font-size="13" font-weight="500" fill="#334155" text-anchor="middle" font-family="Noto Sans CJK KR, NanumGothic, sans-serif">작가명</text><rect x="104" y="799" width="172" height="48" rx="10" fill="#ffffff" stroke="#cbd5e1" stroke-width="1" /><text x="190" y="829" font-size="13" font-weight="500" fill="#334155" text-anchor="middle" font-family="Noto Sans CJK KR, NanumGothic, sans-serif">내 감상</text><rect x="104" y="861" width="172" height="42" rx="12" fill="#1f2937" stroke="#1f2937" stroke-width="1" /><text x="190" y="888" font-size="13" font-weight="700" fill="#ffffff" text-anchor="middle" font-family="Noto Sans CJK KR, NanumGothic, sans-serif">템플릿 추천</text><line x1="315" y1="815" x2="345" y2="815" stroke="#64748b" stroke-width="3" marker-end="url(#arrow)" /><g filter="url(#shadow)"><rect x="350" y="600" width="240" height="430" rx="28" fill="#ffffff" stroke="#cbd5e1" stroke-width="2" /></g><rect x="364" y="614" width="212" height="402" rx="20" fill="#f8fafc" stroke="#e2e8f0" stroke-width="1" /><text x="470" y="648" font-size="18" font-weight="700" fill="#0f172a" text-anchor="middle" font-family="Noto Sans CJK KR, NanumGothic, sans-serif">TEMPLATE</text><rect x="384" y="675" width="172" height="36" rx="8" fill="#ffffff" stroke="#cbd5e1" stroke-width="1" /><text x="470" y="698" font-size="12" font-weight="500" fill="#334155" text-anchor="middle" font-family="Noto Sans CJK KR, NanumGothic, sans-serif">추천 템플릿 1</text><rect x="384" y="721" width="172" height="36" rx="8" fill="#ffffff" stroke="#cbd5e1" stroke-width="1" /><text x="470" y="744" font-size="12" font-weight="500" fill="#334155" text-anchor="middle" font-family="Noto Sans CJK KR, NanumGothic, sans-serif">추천 템플릿 2</text><rect x="384" y="767" width="172" height="36" rx="8" fill="#ffffff" stroke="#cbd5e1" stroke-width="1" /><text x="470" y="790" font-size="12" font-weight="500" fill="#334155" text-anchor="middle" font-family="Noto Sans CJK KR, NanumGothic, sans-serif">추천 템플릿 3</text><rect x="384" y="813" width="172" height="48" rx="10" fill="#ffffff" stroke="#cbd5e1" stroke-width="1" /><text x="470" y="843" font-size="13" font-weight="500" fill="#334155" text-anchor="middle" font-family="Noto Sans CJK KR, NanumGothic, sans-serif">비율 선택</text><rect x="384" y="875" width="172" height="42" rx="12" fill="#1f2937" stroke="#1f2937" stroke-width="1" /><text x="470" y="902" font-size="13" font-weight="700" fill="#ffffff" text-anchor="middle" font-family="Noto Sans CJK KR, NanumGothic, sans-serif">미리보기</text><line x1="595" y1="815" x2="625" y2="815" stroke="#64748b" stroke-width="3" marker-end="url(#arrow)" /><g filter="url(#shadow)"><rect x="630" y="600" width="240" height="430" rx="28" fill="#ffffff" stroke="#cbd5e1" stroke-width="2" /></g><rect x="644" y="614" width="212" height="402" rx="20" fill="#f8fafc" stroke="#e2e8f0" stroke-width="1" /><text x="750" y="648" font-size="18" font-weight="700" fill="#0f172a" text-anchor="middle" font-family="Noto Sans CJK KR, NanumGothic, sans-serif">PREVIEW</text><rect x="675" y="675" width="150" height="190" rx="12" fill="#fef3c7" stroke="#fcd34d" stroke-width="1" /><text x="750" y="763" font-size="13" font-weight="700" fill="#92400e" text-anchor="middle" font-family="Noto Sans CJK KR, NanumGothic, sans-serif">카드 미리보기</text><rect x="664" y="885" width="172" height="42" rx="12" fill="#1f2937" stroke="#1f2937" stroke-width="1" /><text x="750" y="912" font-size="13" font-weight="700" fill="#ffffff" text-anchor="middle" font-family="Noto Sans CJK KR, NanumGothic, sans-serif">PNG 저장</text><rect x="664" y="939" width="172" height="48" rx="10" fill="#ffffff" stroke="#cbd5e1" stroke-width="1" /><text x="750" y="969" font-size="13" font-weight="500" fill="#334155" text-anchor="middle" font-family="Noto Sans CJK KR, NanumGothic, sans-serif">개인 소장 안내</text>
</svg>